<svg height="511pt" viewBox="0 0 511.9991 511" width="511pt" xmlns="http://www.w3.org/2000/svg"><path d="m487.820312 179.652344c0-15.222656 27.582032-33.863282 23.828126-47.902344-3.882813-14.527344-37.199219-16.867188-44.558594-29.585938-7.464844-12.898437 7.085937-42.902343-3.382813-53.375-10.46875-10.46875-40.472656 4.082032-53.375-3.382812-12.71875-7.355469-15.058593-40.675781-29.582031-44.554688-14.039062-3.753906-32.679688 23.828126-47.902344 23.828126s-33.863281-27.582032-47.902344-23.828126c-14.523437 3.882813-16.863281 37.199219-29.582031 44.554688-12.902343 7.464844-42.90625-7.085938-53.375 3.386719-10.472656 10.46875 4.082031 40.472656-3.382812 53.371093-7.359375 12.71875-40.675781 15.058594-44.558594 29.585938-3.75 14.039062 23.828125 32.679688 23.828125 47.902344s-27.582031 33.859375-23.828125 47.898437c3.882813 14.527344 37.199219 16.867188 44.558594 29.585938 7.464843 12.902343-7.085938 42.90625 3.382812 53.375s40.472657-4.082031 53.375 3.382812c12.71875 7.359375 15.058594 40.675781 29.582031 44.554688 14.039063 3.753906 32.679688-23.824219 47.902344-23.824219s33.863282 27.578125 47.902344 23.824219c14.523438-3.878907 16.867188-37.195313 29.582031-44.554688 12.902344-7.464843 42.90625 7.085938 53.375-3.382812 10.472657-10.472657-4.078125-40.476563 3.382813-53.375 7.359375-12.71875 40.675781-15.058594 44.558594-29.585938 3.753906-14.035156-23.828126-32.675781-23.828126-47.898437zm0 0" fill="#ffee8c"/><path d="m452.488281 179.652344c0 60.425781-44.804687 110.390625-103.007812 118.484375-5.433594.761719-10.984375 1.148437-16.628907 1.148437-66.074218 0-119.644531-53.5625-119.644531-119.636718 0-66.074219 53.570313-119.636719 119.644531-119.636719 5.644532 0 11.195313.390625 16.628907 1.148437 58.203125 8.097656 103.007812 58.0625 103.007812 118.492188zm0 0" fill="#f28f44"/><path d="m452.488281 179.652344c0 60.425781-44.804687 110.390625-103.007812 118.484375-58.207031-8.09375-103.007813-58.058594-103.007813-118.484375 0-60.429688 44.800782-110.394532 103.007813-118.488282 58.203125 8.09375 103.007812 58.058594 103.007812 118.488282zm0 0" fill="#ffd073"/><path d="m330.957031 257.414062c0 30.722657-24.90625 55.628907-55.636719 55.628907h-201.339843c-40.851563 0-73.97656275-33.113281-73.97656275-73.976563 0-40.851562 33.12499975-73.976562 73.97656275-73.976562 3.667969 0 7.269531.28125 10.796875.792968 16.710937-33.175781 51.066406-55.941406 90.761718-55.941406 48.027344 0 88.261719 33.34375 98.828126 78.144532 1.054687 4.46875 1.820312 9.050781 2.257812 13.71875v.011718c30.117188.691406 54.332031 25.3125 54.332031 55.597656zm0 0" fill="#d3ddea"/><path d="m210.835938 116.25c-10.996094-4.082031-22.890626-6.304688-35.296876-6.304688-39.695312 0-74.039062 22.765626-90.761718 55.929688v.011719c-3.527344-.511719-7.128906-.792969-10.796875-.792969-40.863281 0-73.97656275 33.125-73.97656275 73.976562 0 40.863282 33.11328175 73.976563 73.97656275 73.976563h35.757812c-36.820312 0-66.65625-29.847656-66.65625-66.65625 0-32.664063 23.496094-59.847656 54.519531-65.550781 3.070313-.574219 6.214844-.929688 9.421876-1.054688.898437-.03125 1.804687-.050781 2.714843-.050781 11.964844 0 23.203125 3.152344 32.90625 8.6875-1.347656-9.390625-11.058593-18.1875-25.371093-25.277344 7.859374-26.582031 34.609374-51.234375 93.5625-46.894531zm0 0" fill="#84abc1"/><path d="m462.265625 331.375c0 30.722656-24.90625 55.628906-55.640625 55.628906h-201.335938c-40.855468 0-73.980468-33.113281-73.980468-73.976562 0-40.851563 33.125-73.976563 73.980468-73.976563 3.664063 0 7.265626.28125 10.796876.792969 16.707031-33.175781 51.066406-55.941406 90.757812-55.941406 48.027344 0 88.261719 33.34375 98.832031 78.140625 1.054688 4.472656 1.816407 9.054687 2.253907 13.722656v.011719c30.117187.6875 54.335937 25.3125 54.335937 55.597656zm0 0" fill="#d3ddea"/><path d="m342.140625 190.210938c-10.996094-4.082032-22.890625-6.308594-35.296875-6.308594-39.695312 0-74.039062 22.765625-90.757812 55.933594v.011718c-3.53125-.511718-7.132813-.792968-10.800782-.792968-40.863281 0-73.976562 33.121093-73.976562 73.976562 0 40.863281 33.113281 73.976562 73.976562 73.976562h35.757813c-36.820313 0-66.65625-29.847656-66.65625-66.65625 0-32.667968 23.496093-59.847656 54.519531-65.550781 3.070312-.574219 6.214844-.929687 9.421875-1.054687.898437-.03125 1.804687-.050782 2.714844-.050782 11.96875 0 23.203125 3.152344 32.90625 8.6875-1.347657-9.390624-11.058594-18.1875-25.371094-25.277343 7.859375-26.582031 34.609375-51.234375 93.5625-46.894531zm0 0" fill="#84abc1"/><path d="m21.40625 413.148438c-12.792969 7.40625-21.40625 21.230468-21.40625 37.074218 0 .566406.0117188 1.128906.03125 1.691406 1.046875 26.910157 41.707031 26.910157 42.75 0 .023438-.5625.035156-1.125.035156-1.691406 0-15.84375-8.613281-29.667968-21.410156-37.074218zm0 0" fill="#84abc1"/><path d="m21.40625 472.097656c-10.421875 0-20.84375-6.734375-21.3632812-20.183594-.0234376-.566406-.0429688-1.128906-.0429688-1.695312 0-15.839844 8.617188-29.667969 21.40625-37.070312-2.578125 7.402343-4.3125 21.230468-4.3125 37.070312 0 .566406 0 1.128906.011719 1.695312.105469 13.449219 2.203125 20.183594 4.300781 20.183594zm0 0" fill="#4d87a1"/><path d="m92.660156 340.695312c-12.792968 7.402344-21.410156 21.226563-21.410156 37.074219 0 .566407.011719 1.128907.035156 1.6875 1.042969 26.914063 41.703125 26.914063 42.75 0 .019532-.558593.03125-1.121093.03125-1.6875 0-15.847656-8.613281-29.671875-21.40625-37.074219zm0 0" fill="#84abc1"/><path d="m92.660156 399.644531c-10.421875 0-20.84375-6.734375-21.367187-20.1875-.019531-.5625-.042969-1.128906-.042969-1.691406 0-15.839844 8.617188-29.667969 21.410156-37.070313-2.582031 7.402344-4.3125 21.230469-4.3125 37.070313 0 .5625 0 1.128906.007813 1.691406.105469 13.453125 2.203125 20.1875 4.304687 20.1875zm0 0" fill="#4d87a1"/><path d="m115.246094 453.179688c-12.792969 7.40625-21.410156 21.230468-21.410156 37.074218 0 .566406.011718 1.128906.035156 1.6875 1.042968 26.914063 41.703125 26.914063 42.75 0 .019531-.558594.03125-1.121094.03125-1.6875 0-15.84375-8.613282-29.667968-21.40625-37.074218zm0 0" fill="#84abc1"/><path d="m115.246094 512.128906c-10.421875 0-20.84375-6.734375-21.367188-20.1875-.019531-.5625-.042968-1.125-.042968-1.691406 0-15.839844 8.617187-29.667969 21.410156-37.070312-2.582032 7.402343-4.3125 21.230468-4.3125 37.070312 0 .566406 0 1.128906.007812 1.691406.105469 13.453125 2.203125 20.1875 4.304688 20.1875zm0 0" fill="#4d87a1"/><path d="m209.082031 413.148438c-12.792969 7.40625-21.410156 21.230468-21.410156 37.074218 0 .566406.011719 1.128906.035156 1.691406 1.042969 26.910157 41.703125 26.910157 42.75 0 .019531-.5625.03125-1.125.03125-1.691406 0-15.84375-8.613281-29.667968-21.40625-37.074218zm0 0" fill="#84abc1"/><path d="m209.082031 472.097656c-10.421875 0-20.84375-6.734375-21.367187-20.183594-.019532-.566406-.042969-1.128906-.042969-1.695312 0-15.839844 8.617187-29.667969 21.410156-37.070312-2.578125 7.402343-4.3125 21.230468-4.3125 37.070312 0 .566406 0 1.128906.007813 1.695312.105468 13.449219 2.203125 20.183594 4.304687 20.183594zm0 0" fill="#4d87a1"/><path d="m302.917969 453.179688c-12.792969 7.40625-21.40625 21.230468-21.40625 37.074218 0 .566406.007812 1.128906.03125 1.6875 1.046875 26.914063 41.703125 26.914063 42.75 0 .023437-.558594.03125-1.121094.03125-1.6875.003906-15.84375-8.613281-29.667968-21.40625-37.074218zm0 0" fill="#84abc1"/><path d="m302.917969 512.128906c-10.421875 0-20.84375-6.734375-21.367188-20.1875-.019531-.5625-.039062-1.125-.039062-1.691406 0-15.839844 8.613281-29.667969 21.40625-37.070312-2.578125 7.402343-4.3125 21.230468-4.3125 37.070312 0 .566406 0 1.128906.011719 1.691406.101562 13.453125 2.203124 20.1875 4.300781 20.1875zm0 0" fill="#4d87a1"/><path d="m396.753906 413.148438c-12.792968 7.40625-21.40625 21.230468-21.40625 37.074218 0 .566406.011719 1.128906.03125 1.691406 1.046875 26.910157 41.703125 26.910157 42.75 0 .023438-.5625.03125-1.125.03125-1.691406.003906-15.84375-8.609375-29.667968-21.40625-37.074218zm0 0" fill="#84abc1"/><path d="m396.753906 472.097656c-10.421875 0-20.84375-6.734375-21.363281-20.183594-.023437-.566406-.042969-1.128906-.042969-1.695312 0-15.839844 8.613282-29.667969 21.40625-37.070312-2.578125 7.402343-4.3125 21.230468-4.3125 37.070312 0 .566406 0 1.128906.011719 1.695312.105469 13.449219 2.203125 20.183594 4.300781 20.183594zm0 0" fill="#4d87a1"/><g fill="#cc9236"><path d="m328.929688 120.546875c-3.460938 0-6.265626-2.804687-6.265626-6.265625v-6.894531c0-3.460938 2.804688-6.265625 6.265626-6.265625 3.457031 0 6.265624 2.804687 6.265624 6.265625v6.894531c0 3.460938-2.804687 6.265625-6.265624 6.265625zm0 0"/><path d="m377.140625 120.546875c-3.460937 0-6.265625-2.804687-6.265625-6.265625v-6.894531c0-3.460938 2.804688-6.265625 6.265625-6.265625 3.457031 0 6.265625 2.804687 6.265625 6.265625v6.894531c0 3.460938-2.804688 6.265625-6.265625 6.265625zm0 0"/><path d="m363.652344 158.46875h-16.710938c-3.457031 0-6.265625-2.804688-6.265625-6.265625s2.808594-6.265625 6.265625-6.265625h16.710938c3.457031 0 6.265625 2.804688 6.265625 6.265625s-2.804688 6.265625-6.265625 6.265625zm0 0"/></g></svg>