<svg height="512pt" viewBox="0 -105 512 512" width="512pt" xmlns="http://www.w3.org/2000/svg"><g fill-rule="evenodd"><path d="m132.886719 202.503906-92.835938-53.601562c-16.070312 32.335937-25.125 68.777344-25.125 107.34375 0 .082031.003907.164062.003907.246094h106.730468l-.003906-.246094c0-19.097656 4.015625-37.273438 11.230469-53.742188zm0 0" fill="#f2de00"/><path d="m147.835938 176.664062c8.042968-10.898437 17.6875-20.546874 28.585937-28.585937l-53.664063-92.953125c-26.875 17.875-49.957031 41-67.789062 67.917969zm0 0" fill="#ffd222"/><path d="m472.0625 149.128906-92.847656 53.605469c7.152344 16.40625 11.128906 34.503906 11.128906 53.511719l-.003906.246094h106.730468c0-.082032.003907-.164063.003907-.246094 0-38.476563-9.011719-74.839844-25.011719-107.117188zm0 0" fill="#00a893"/><path d="m335.929688 148.335938c10.824218 8.039062 20.398437 17.667968 28.382812 28.53125l92.859375-53.613282c-17.773437-26.886718-40.773437-50-67.5625-67.890625zm0 0" fill="#00db80"/><path d="m271.175781 15.414062-.21875 107.324219c13.792969 1.535157 26.960938 5.167969 39.179688 10.570313l53.664062-92.953125c-28.171875-14.121094-59.488281-22.878907-92.625-24.941407zm0 0" fill="#00db80"/><path d="m241.324219 15.382812c-33.167969 1.996094-64.519531 10.699219-92.734375 24.78125l53.675781 92.96875c12.121094-5.3125 25.171875-8.886718 38.835937-10.398437zm0 0" fill="#cafa5c"/></g><path d="m437.023438 75.058594c-48.265626-48.316406-112.410157-74.9609378-180.65625-75.05468775-.027344 0-.054688-.00390625-.085938-.00390625-.007812 0-.019531 0-.03125 0-.015625 0-.03125.00390625-.046875.00390625-.066406 0-.136719-.00390625-.203125-.00390625-68.382812 0-132.671875 26.65625-181.023438 75.058594-48.347656 48.398437-74.976562 112.746094-74.976562 181.1875l.00390625.296875c.02734375 8.222656 6.69921875 14.875 14.92578175 14.875h482.140624c8.226563 0 14.898438-6.652344 14.925782-14.875l.003906-.296875c0-68.441406-26.625-132.789063-74.976562-181.1875zm-406.699219 166.507812c1.953125-30.394531 9.933593-59.167968 22.738281-85.148437l89.679688 51.777343c2.351562 1.355469 4.917968 2 7.449218 2 5.160156 0 10.175782-2.675781 12.941406-7.464843 4.121094-7.140625 1.675782-16.269531-5.464843-20.390625l-89.675781-51.773438c16.492187-24.644531 37.683593-45.878906 62.285156-62.414062l53.160156 92.074218c2.761719 4.789063 7.78125 7.464844 12.941406 7.464844 2.53125 0 5.097656-.644531 7.445313-2 7.140625-4.121094 9.585937-13.253906 5.464843-20.390625l-53.191406-92.132812c25.988282-12.863281 54.78125-20.863281 85.195313-22.828125l-.21875 106.457031c-.019531 8.246094 6.652343 14.941406 14.894531 14.960937h.03125c8.230469 0 14.910156-6.664062 14.925781-14.898437l.21875-106.492187c30.402344 2.023437 59.179688 10.082031 85.144531 23l-53.203124 92.152343c-4.121094 7.136719-1.675782 16.265625 5.464843 20.390625 2.347657 1.355469 4.914063 2 7.445313 2 5.160156 0 10.179687-2.675781 12.941406-7.464844l53.148438-92.050781c24.515624 16.542969 45.632812 37.765625 62.0625 62.378907l-90.96875 52.523437c-7.140626 4.121094-9.585938 13.25-5.464844 20.390625 2.765625 4.789062 7.78125 7.464844 12.941406 7.464844 2.53125 0 5.097656-.644532 7.449219-2.003906l90.941406-52.503907c12.738281 25.921875 20.679687 54.613281 22.628906 84.921875zm0 0" fill="#f5f0eb"/><path d="m437.023438 75.058594c-48.195313-48.246094-112.226563-74.878906-180.359376-75.0507815v151.7148435c7.917969-.347656 14.246094-6.851562 14.261719-14.863281l.21875-106.492187c30.402344 2.023437 59.179688 10.085937 85.144531 23l-53.203124 92.152343c-4.121094 7.140625-1.675782 16.269531 5.464843 20.390625 2.347657 1.359375 4.914063 2 7.445313 2 5.160156 0 10.179687-2.675781 12.941406-7.464844l53.148438-92.050781c24.515624 16.542969 45.632812 37.765625 62.0625 62.378907l-90.96875 52.523437c-7.140626 4.121094-9.585938 13.25-5.464844 20.390625 2.765625 4.789062 7.78125 7.464844 12.941406 7.464844 2.53125 0 5.097656-.644532 7.449219-2.003906l90.941406-52.503907c12.738281 25.921875 20.679687 54.617188 22.628906 84.921875h-225.011719v29.855469h240.40625c8.226563 0 14.898438-6.65625 14.925782-14.878906l.003906-.296875c0-68.441406-26.625-132.789063-74.976562-181.1875zm0 0" fill="#ebe1dc"/><path d="m375.414062 271.417969h-238.828124c-8.207032 0-14.875-6.628907-14.925782-14.835938l-.003906-.335937c0-74.078125 60.265625-134.34375 134.34375-134.34375 74.074219 0 134.34375 60.265625 134.34375 134.34375l-.003906.382812c-.074219 8.1875-6.734375 14.789063-14.925782 14.789063zm0 0" fill="#ebe1dc"/><path d="m256.664062 121.910156v149.507813h118.75c8.191407 0 14.851563-6.601563 14.925782-14.789063l.003906-.382812c0-73.855469-59.90625-133.976563-133.679688-134.335938zm0 0" fill="#dcd2cd"/><path d="m255.945312 301.039062c-19.769531 0-37.910156-13.210937-43.265624-33.195312-3.054688-11.40625-11.320313-146.011719-11.132813-150.050781.234375-5.058594.78125-16.90625 12.195313-19.964844 11.449218-3.070313 17.828124 6.957031 20.550781 11.242187 2.167969 3.40625 61.835937 124.164063 64.898437 135.59375 3.09375 11.554688 1.503906 23.621094-4.472656 33.980469-5.984375 10.359375-15.640625 17.769531-27.191406 20.867188-3.867188 1.035156-7.753906 1.527343-11.582032 1.527343zm0 0" fill="#00e5ee"/><path d="m299.191406 244.664062c-1.855468-6.925781-24.492187-53.988281-42.527344-90.765624v147.121093c3.59375-.058593 7.234376-.539062 10.863282-1.507812 11.550781-3.097657 21.207031-10.507813 27.191406-20.867188 5.980469-10.359375 7.566406-22.425781 4.472656-33.980469zm0 0" fill="#2fbeee"/></svg>